<?xml version="1.0" encoding="UTF-8" standalone="no"?>
<svg
  xmlns:dc="http://purl.org/dc/elements/1.1/"
  xmlns:cc="http://creativecommons.org/ns#"
  xmlns:rdf="http://www.w3.org/1999/02/22-rdf-syntax-ns#"
  xmlns:svg="http://www.w3.org/2000/svg"
  xmlns="http://www.w3.org/2000/svg"
  xmlns:sodipodi="http://sodipodi.sourceforge.net/DTD/sodipodi-0.dtd"
  xmlns:inkscape="http://www.inkscape.org/namespaces/inkscape"
  sodipodi:docname="logo.svg"
  inkscape:version="1.0 (4035a4f, 2020-05-01)"
  id="svg8"
  version="1.1"
  viewBox="0 0 100 100"
  height="48"
  width="48">
  <defs
    id="defs2" />
  <sodipodi:namedview
    inkscape:window-maximized="0"
    inkscape:window-y="0"
    inkscape:window-x="1920"
    inkscape:window-height="1080"
    inkscape:window-width="1920"
    showgrid="false"
    inkscape:document-rotation="0"
    inkscape:current-layer="layer1"
    inkscape:document-units="mm"
    inkscape:cy="480.34293"
    inkscape:cx="867.49743"
    inkscape:zoom="0.40334133"
    inkscape:pageshadow="2"
    inkscape:pageopacity="0.0"
    borderopacity="1.0"
    bordercolor="#666666"
    pagecolor="#ffffff"
    id="base" />
  <metadata
    id="metadata5">
    <rdf:RDF>
      <cc:Work
        rdf:about="">
        <dc:format>image/svg+xml</dc:format>
        <dc:type
          rdf:resource="http://purl.org/dc/dcmitype/StillImage" />
        <dc:title></dc:title>
      </cc:Work>
    </rdf:RDF>
  </metadata>
  <g
    id="layer1"
    inkscape:groupmode="layer"
    inkscape:label="レイヤー 1">
    <path
      inkscape:export-ydpi="96"
      inkscape:export-xdpi="96"
      transform="scale(0.26458333)"
      d="M 302.0625 0 A 75.590551 75.590551 0 0 0 259.20312 13.533203 A 188.97638 188.97638 0 0 1 364.41992 118.75 A 75.590551 75.590551 0 0 0 377.95312 75.589844 A 75.590551 75.590551 0 0 0 302.36133 0 A 75.590551 75.590551 0 0 0 302.0625 0 z "
      style="fill:#e37222;fill-opacity:1;stroke-width:5.45624;stroke-linecap:round;paint-order:stroke fill markers"
      id="path1028" />
    <path
      inkscape:export-ydpi="96"
      inkscape:export-xdpi="96"
      id="path1026-2"
      style="fill:#07889b;fill-opacity:1;stroke-width:1.39002;stroke-linecap:round;paint-order:stroke fill markers"
      d="M 50.000045,-8.4694015e-8 A 50.000001,50.000001 0 0 0 1.6359896e-6,50.000048 50.000001,50.000001 0 0 0 50.000045,100.0001 50.000001,50.000001 0 0 0 100.0001,50.000048 50.000001,50.000001 0 0 0 96.419435,31.419271 20,20 0 0 1 79.999775,40.000142 20,20 0 0 1 59.999955,19.999813 20,20 0 0 1 68.580825,3.5806599 50.000001,50.000001 0 0 0 50.000045,-8.4694015e-8 Z" />
  </g>
</svg>
